.
..............................Site Info...........................

 -   http://www.scenetime.com  *_*   

SceneTime is going to Close sign up on march/1, hurry up! get in before the doors are closed.

     We care to share . Join us on  http://www.scenetime.com 

    Be the first to get new release at  http://www.scenetime.com

        Seed back for speed


...................................NFO:.................................................[IMG]http://img811.imageshack.us/img811/194/footloose2011500x754711.jpg[/IMG]


[color=blue][size=5][b]Footloose.2011.DVDRip.XVID.AC3.HQ.Hive-CM8[/b][/size][/color]


[b] Thx Hive

CM8 Doing It Right The First Time :D


Source: DVD-R Legend RG
thx

Encode:
DVD was ok, had a lot of videonoise in it.
removed the noise, added brightness, sharpness, rgb and denoise
got very nice
enjoy

Video: 720x304 @bitrate 1700 2pass
Audio: English AC3 5.1 @448
Sample: Yes, included
Subs: Yes, english in srt /subs[/b]
 
http://www.imdb.com/title/tt1068242/


General
Complete name                  : Footloose.2011.DVDRip.XVID.AC3.HQ.Hive-CM8.avi
Format                         : AVI
Format/Info                    : Audio Video Interleave
File size                      : 1.63 GiB
Duration                       : 1h 48mn
Overall bit rate               : 2 149 Kbps
Writing application            : Nandub v1.0rc2
Writing library                : Nandub build 1853/release

Video
ID                             : 0
Format                         : MPEG-4 Visual
Format profile                 : Advanced Simple@L5
Format settings, BVOP          : 2
Format settings, QPel          : Yes
Format settings, GMC           : No warppoints
Format settings, Matrix        : Default (H.263)
Muxing mode                    : Packed bitstream
Codec ID                       : XVID
Codec ID/Hint                  : XviD
Duration                       : 1h 48mn
Bit rate                       : 1 691 Kbps
Width                          : 720 pixels
Height                         : 304 pixels
Display aspect ratio           : 2.35:1
Frame rate                     : 25.000 fps
Color space                    : YUV
Chroma subsampling             : 4:2:0
Bit depth                      : 8 bits
Scan type                      : Progressive
Compression mode               : Lossy
Bits/(Pixel*Frame)             : 0.309
Stream size                    : 1.28 GiB (79%)
Writing library                : XviD 1.2.1 (UTC 2008-12-04)

Audio
ID                             : 1
Format                         : AC-3
Format/Info                    : Audio Coding 3
Mode extension                 : CM (complete main)
Codec ID                       : 2000
Duration                       : 1h 48mn
Bit rate mode                  : Constant
Bit rate                       : 448 Kbps
Channel(s)                     : 6 channels
Channel positions              : Front: L C R, Side: L R, LFE
Sampling rate                  : 48.0 KHz
Bit depth                      : 16 bits
Compression mode               : Lossy
Delay relative to video        : 50ms
Stream size                    : 348 MiB (21%)
Alignment                      : Split accross interleaves
Interleave, duration           : 40 ms (1.00 video frame)
Interleave, preload duration   : 500 ms


Plot:
City kid Ren MacCormack moves to a small town where rock 'n' roll and dancing
have been banned, and his rebellious spirit shakes up the populace.


Cast:
Kenny Wormald    ...    Ren MacCormack
Julianne Hough   ...    Ariel Moore
Dennis Quaid     ...    Rev. Shaw Moore
Miles Teller     ...    Willard


[img]http://img534.imageshack.us/img534/8600/77760822.png[/img]
[img]http://img854.imageshack.us/img854/7913/flfflfll.png[/img]
[img]http://img845.imageshack.us/img845/3514/flffll.png[/img]
[img]http://img857.imageshack.us/img857/4529/flfl.png[/img]
[img]http://img692.imageshack.us/img692/7023/flfflffflllflfll.png[/img]
[img]http://img42.imageshack.us/img42/452/flfflffflllfll.png[/img]
[img]http://img819.imageshack.us/img819/6118/flfflfflffllfllflflfll.png[/img]
[img]http://img190.imageshack.us/img190/8730/flfflfflfflllflfll.png[/img]
[img]http://img855.imageshack.us/img855/7196/flfflffllfll.png[/img]
[img]http://img859.imageshack.us/img859/9100/flfflflfll.png[/img]
[img]http://img843.imageshack.us/img843/7024/flfflfflfflllflflfll.png[/img]



Greetz

ViSiON,SPK,SceneLovers,PRESTiGE,SANTi,3LT0N,YanKeeS,COPYxRIGHT,THC,T0XiC
D2U,LKRG,Feel-Free,FLAWL3SS,WBZ,BHRG,26K,NOVA,SeToNeUp,TED,MAGNET,jtr
Unevano,Rapeseed,SAFC,goldadvance,KaN1vE,Pinnz,Wayne
Mr Hive,and most P2P groups
Great Work Guys :D

LOOKING FOR ANYTHING YOU WANT TO LOOK AND SOUND BETTER

CM8@hushmail.com